<?xml version="1.0" standalone="no"?>
<!DOCTYPE svg PUBLIC "-//W3C//DTD SVG 20010904//EN"
 "http://www.w3.org/TR/2001/REC-SVG-20010904/DTD/svg10.dtd">
<svg version="1.0" xmlns="http://www.w3.org/2000/svg"
 width="409.000000pt" height="610.000000pt" viewBox="0 0 409.000000 610.000000"
 preserveAspectRatio="xMidYMid meet">

<g transform="translate(0.000000,610.000000) scale(0.100000,-0.100000)"
fill="#000000" stroke="none">
<path d="M1980 5869 c-200 -39 -350 -229 -350 -443 l0 -53 -272 -6 c-237 -5
-284 -8 -353 -27 -248 -67 -442 -259 -522 -516 -16 -54 -18 -105 -18 -589 0
-588 -1 -580 66 -722 92 -193 254 -333 459 -393 41 -13 78 -25 83 -27 4 -3
-13 -27 -38 -55 -25 -28 -55 -72 -67 -99 -13 -27 -27 -49 -33 -49 -5 0 -26 17
-45 37 -19 19 -64 49 -100 66 -60 29 -75 32 -193 35 -111 4 -136 2 -195 -17
-119 -38 -202 -119 -242 -233 -18 -51 -20 -83 -20 -277 0 -242 5 -268 63 -329
46 -49 83 -65 162 -71 l70 -6 3 -277 2 -278 -52 -26 c-112 -56 -188 -142 -228
-258 -18 -52 -20 -84 -20 -264 0 -190 1 -207 21 -239 55 -89 196 -84 246 9 15
27 19 66 23 223 5 200 9 217 55 253 66 52 177 27 215 -49 18 -34 20 -59 20
-210 0 -153 2 -178 20 -214 27 -57 71 -79 139 -73 55 5 91 30 117 80 19 37 19
367 0 458 -8 36 -13 66 -12 67 1 1 21 -27 45 -63 110 -163 285 -259 496 -273
l90 -6 5 -280 c6 -313 10 -334 82 -407 75 -75 161 -92 423 -86 154 4 187 7
226 25 62 28 113 75 141 131 22 45 23 59 28 332 l5 285 97 6 c240 16 387 109
535 338 2 2 5 2 8 0 2 -3 -3 -27 -11 -54 -12 -37 -16 -102 -17 -250 -2 -185 0
-203 18 -235 40 -67 124 -92 193 -56 61 32 66 50 72 261 5 208 12 233 72 278
38 29 117 29 154 1 66 -49 69 -57 74 -272 4 -172 7 -201 24 -225 65 -97 225
-70 256 42 15 56 12 345 -5 425 -26 122 -121 244 -232 297 -26 12 -51 27 -55
33 -10 14 -10 528 0 542 4 7 39 13 77 16 84 5 140 35 182 100 l28 42 0 260 c0
248 -1 263 -22 309 -33 70 -113 149 -186 183 -60 28 -68 29 -212 29 -133 0
-156 -3 -207 -23 -31 -13 -79 -43 -106 -68 -28 -24 -52 -44 -55 -44 -3 0 -18
25 -33 55 -15 30 -45 72 -66 92 -20 21 -37 43 -38 49 0 6 37 21 83 33 193 51
378 209 463 396 65 142 67 156 71 659 5 492 0 566 -41 690 -38 111 -90 192
-185 286 -96 96 -193 153 -321 190 -66 20 -109 23 -355 29 l-280 6 -6 85 c-12
174 -92 296 -244 372 -87 44 -177 56 -275 37z m232 -107 c123 -60 198 -174
206 -313 l5 -79 -352 0 c-320 0 -352 2 -358 17 -11 27 13 158 38 209 39 81
126 155 219 185 49 16 192 5 242 -19z m893 -497 c87 -22 214 -89 279 -147 95
-84 180 -228 205 -346 7 -35 11 -219 11 -545 0 -545 -2 -562 -65 -692 -83
-172 -261 -311 -450 -350 -104 -22 -1926 -22 -2030 0 -118 25 -227 86 -320
179 -93 94 -143 183 -176 313 -19 78 -20 105 -16 580 3 555 2 538 78 684 50
96 182 224 281 272 141 68 91 65 1168 66 837 1 984 -1 1035 -14z m-153 -2209
c66 -32 123 -91 154 -158 l29 -63 0 -675 c0 -627 -1 -679 -18 -735 -57 -185
-220 -336 -405 -374 -69 -14 -1197 -15 -1273 -1 -30 5 -90 28 -135 50 -136 66
-251 208 -283 350 -7 29 -11 290 -11 711 0 724 -1 707 56 787 34 47 102 100
152 118 30 11 192 13 867 11 785 -2 832 -3 867 -21z m-2182 -144 c64 -32 123
-104 139 -168 6 -24 11 -136 11 -252 0 -201 -1 -210 -23 -243 -44 -66 -62 -70
-337 -67 -345 4 -335 -6 -335 323 0 237 8 275 73 347 69 77 146 100 312 93 90
-4 113 -9 160 -33z m2986 8 c53 -26 108 -79 137 -133 21 -39 22 -56 25 -272 3
-227 3 -231 -20 -265 -44 -66 -65 -70 -326 -70 -259 0 -282 4 -323 61 -24 34
-24 37 -24 264 0 257 3 269 72 346 71 78 146 101 312 93 78 -3 116 -9 147 -24z
m-2825 -1131 c4 -277 9 -355 22 -399 9 -30 15 -55 13 -57 -1 -2 -22 21 -45 49
-50 62 -127 122 -176 138 l-35 12 0 284 0 284 63 0 c43 0 73 6 97 19 19 11 40
19 45 17 6 -2 12 -131 16 -347z m2332 334 c18 -9 64 -19 102 -22 l70 -6 3
-277 2 -277 -54 -27 c-73 -35 -120 -76 -172 -147 -24 -33 -44 -58 -44 -56 0 2
10 36 22 74 20 65 22 96 25 413 3 188 7 342 9 342 3 0 19 -8 37 -17z m-2641
-285 c2 -139 2 -259 0 -265 -3 -8 -23 -13 -53 -13 l-49 0 0 265 0 265 49 0 49
0 4 -252z m2998 -13 l0 -265 -50 0 -50 0 0 265 0 265 50 0 50 0 0 -265z
m-2898 -387 c68 -31 128 -89 165 -160 28 -52 28 -55 31 -264 3 -185 1 -213
-13 -228 -20 -20 -55 -21 -81 -2 -17 13 -19 31 -24 213 -5 217 -8 229 -72 290
-68 66 -170 80 -256 37 -108 -54 -132 -118 -132 -352 0 -183 -6 -202 -61 -202
-55 0 -61 26 -57 242 3 183 4 196 29 248 46 98 119 162 222 196 65 21 181 13
249 -18z m3000 -1 c74 -36 149 -117 178 -192 21 -55 23 -76 24 -246 1 -170 -1
-189 -18 -208 -25 -28 -70 -27 -90 1 -13 18 -16 56 -16 202 0 162 -2 184 -21
223 -54 112 -188 162 -299 112 -60 -27 -88 -54 -116 -114 -22 -47 -24 -62 -24
-229 0 -153 -2 -182 -17 -198 -21 -24 -65 -23 -87 1 -16 17 -17 41 -14 223 l3
203 32 60 c31 59 82 116 134 147 91 56 234 63 331 15z"/>
<path d="M1108 5059 c-127 -18 -252 -117 -300 -236 l-23 -58 0 -495 0 -495 31
-65 c40 -86 108 -153 192 -193 l67 -32 969 -3 c851 -2 976 -1 1029 13 112 29
206 107 256 214 l26 56 0 510 0 510 -29 60 c-57 116 -165 194 -296 215 -79 12
-1837 12 -1922 -1z m1993 -105 c60 -28 125 -93 153 -153 21 -45 21 -56 21
-526 l0 -480 -24 -53 c-14 -31 -43 -70 -72 -96 -90 -81 -22 -76 -1113 -76
l-971 0 -51 24 c-66 31 -120 85 -153 155 l-26 56 0 470 0 470 28 57 c16 33 49
76 77 101 90 81 23 76 1115 74 969 -2 970 -2 1016 -23z"/>
<path d="M1310 4575 c-46 -21 -68 -42 -91 -87 -17 -32 -19 -60 -19 -213 0
-190 7 -221 62 -272 72 -67 220 -54 277 25 34 49 43 111 40 274 -4 171 -12
195 -80 250 -46 37 -134 48 -189 23z"/>
<path d="M2680 4574 c-46 -20 -68 -41 -92 -87 -17 -35 -19 -56 -16 -226 l3
-188 29 -37 c42 -56 81 -76 149 -76 101 0 163 47 187 143 18 69 9 343 -12 382
-48 88 -158 128 -248 89z"/>
</g>
</svg>
